<svg id="Layer_1" data-name="Layer 1" xmlns="http://www.w3.org/2000/svg" viewBox="0 0 278.07 55.82"><defs><style>.cls-1{fill:#1c1c1e;}</style></defs><polygon class="cls-1" points="38.45 1.63 15.93 25.76 39.67 55.82 39.67 1.63 38.45 1.63"/><polygon class="cls-1" points="22.05 1.63 0 1.63 0 24.72 22.05 1.63"/><polygon class="cls-1" points="0 42.16 0 55.82 22.34 55.82 6.13 35.84 0 42.16"/><path class="cls-1" d="M136.86,15.36v.95a6.83,6.83,0,0,0-2.22.35,1.66,1.66,0,0,0-1,1.13,10,10,0,0,0-.24,2.57V43.77a9.5,9.5,0,0,0,.26,2.55,1.69,1.69,0,0,0,1,1.13,7.71,7.71,0,0,0,2.2.38v.94c-.88-.06-2-.1-3.38-.12l-4.13,0-4.53,0q-2.11,0-3.39.12v-.94a7.7,7.7,0,0,0,2.19-.38,1.64,1.64,0,0,0,1-1.13,9.1,9.1,0,0,0,.26-2.55V20.36a9,9,0,0,0-.26-2.57,1.71,1.71,0,0,0-1-1.13,6.62,6.62,0,0,0-2.19-.35v-.95c.85,0,2,.07,3.39.1s2.93,0,4.53,0c1.39,0,2.77,0,4.13,0S136,15.39,136.86,15.36Zm16.8,0v.9a13,13,0,0,0-3.4,1.44,16.56,16.56,0,0,0-3.92,3.42l-8.73,10.19,3.26-4.43L152.05,45a9.17,9.17,0,0,0,1.35,1.7,6.52,6.52,0,0,0,1.81,1.18v.94q-1.83-.09-4-.12l-4,0-2.55,0c-1,0-2.28.06-3.82.12v-.94c1.38-.06,2.2-.24,2.45-.52s.14-.82-.33-1.61l-6.89-11.32a8.25,8.25,0,0,0-1-1.46,3.08,3.08,0,0,0-.88-.69,3,3,0,0,0-1.13-.26V31A7.24,7.24,0,0,0,137,29.75a20.8,20.8,0,0,0,4-3.77l2.21-2.6a7.81,7.81,0,0,0,2.1-3.72,2.58,2.58,0,0,0-.8-2.46,4.39,4.39,0,0,0-2.85-.94v-.9l3.49.1c1.07,0,2.39,0,4,0C150.92,15.5,152.46,15.46,153.66,15.36Z" transform="translate(-59.52 -11.87)"/><path class="cls-1" d="M161.82,49.1a5.77,5.77,0,0,1-4.6-1.67,6,6,0,0,1-1.44-4,5.57,5.57,0,0,1,.92-3.28,7.11,7.11,0,0,1,2.38-2.1,19.54,19.54,0,0,1,3.07-1.34c1.07-.36,2.09-.73,3.07-1.09a9.4,9.4,0,0,0,2.36-1.22,2.15,2.15,0,0,0,.89-1.77V28.67a6.28,6.28,0,0,0-.3-2,3.11,3.11,0,0,0-1.09-1.51,3.5,3.5,0,0,0-2.15-.59,5.78,5.78,0,0,0-1.65.24,3.84,3.84,0,0,0-1.41.75,4.45,4.45,0,0,1,2.24,1.56,3.89,3.89,0,0,1,.73,2.31,3.41,3.41,0,0,1-1.2,2.76,4.3,4.3,0,0,1-2.86,1A3.43,3.43,0,0,1,158,32.11a4.07,4.07,0,0,1-1-2.73,4,4,0,0,1,.71-2.39,6.91,6.91,0,0,1,2.08-1.77,10.75,10.75,0,0,1,3.3-1.18,21.59,21.59,0,0,1,4.11-.37,17.34,17.34,0,0,1,4.08.45,6.52,6.52,0,0,1,3.18,1.77,5,5,0,0,1,1.33,2.64,23.77,23.77,0,0,1,.28,4V45.23a4.31,4.31,0,0,0,.21,1.63.71.71,0,0,0,.68.45,1.53,1.53,0,0,0,.85-.24,4.63,4.63,0,0,0,.71-.52l.52.81a7.43,7.43,0,0,1-2.45,1.29,10.13,10.13,0,0,1-3.07.45c-1.95,0-3.26-.38-3.92-1.13a4,4,0,0,1-1-2.6,8.16,8.16,0,0,1-2.74,2.74A7.78,7.78,0,0,1,161.82,49.1Zm4.2-3.4a2.86,2.86,0,0,0,1.3-.3,3.61,3.61,0,0,0,1.15-1.06V34.52a5,5,0,0,1-1.36,1.53c-.57.43-1.15.89-1.73,1.37a6.26,6.26,0,0,0-1.46,1.82,6.05,6.05,0,0,0-.59,2.88,4,4,0,0,0,.78,2.76A2.51,2.51,0,0,0,166,45.7Z" transform="translate(-59.52 -11.87)"/><path class="cls-1" d="M198.48,23.67a8.74,8.74,0,0,1,3.33.52,4.7,4.7,0,0,1,1.91,1.32,5.54,5.54,0,0,1,1.11,2.31,16.12,16.12,0,0,1,.36,3.82V44.38a4.18,4.18,0,0,0,.63,2.69,2.87,2.87,0,0,0,2.2.71v1l-2.81-.12c-1.24,0-2.45-.07-3.61-.07s-2.53,0-3.73.07l-2.69.12v-1a2.14,2.14,0,0,0,1.84-.71,4.84,4.84,0,0,0,.52-2.69v-15a6.77,6.77,0,0,0-.23-1.87,2.17,2.17,0,0,0-.81-1.18,2.78,2.78,0,0,0-1.6-.4,3.76,3.76,0,0,0-2.83,1.25,4.46,4.46,0,0,0-1.18,3.19v14a4.84,4.84,0,0,0,.52,2.69,2.14,2.14,0,0,0,1.84.71v1l-2.6-.12c-1.13,0-2.28-.07-3.44-.07s-2.58,0-3.87.07l-2.93.12v-1a2.87,2.87,0,0,0,2.2-.71,4.18,4.18,0,0,0,.63-2.69V29.47a6.26,6.26,0,0,0-.61-3.14,2.39,2.39,0,0,0-2.22-1v-1c1,.09,2,.14,2.93.14,1.41,0,2.76,0,4-.17a30.51,30.51,0,0,0,3.52-.49v3.82A6.52,6.52,0,0,1,194,24.56,10.82,10.82,0,0,1,198.48,23.67Z" transform="translate(-59.52 -11.87)"/><path class="cls-1" d="M219.29,11.87V48.35a8,8,0,0,0-2.78-.36,10,10,0,0,0-2.6.47A5.22,5.22,0,0,0,212,49.53l-.71-.43a4.8,4.8,0,0,0,.28-1.32c0-.44.05-.88.05-1.32V17.53a6.52,6.52,0,0,0-.59-3.14,2.37,2.37,0,0,0-2.24-1v-1c1,.09,2,.14,2.92.14,1.45,0,2.8,0,4.06-.16A30.49,30.49,0,0,0,219.29,11.87Zm7.22,11.8a7.37,7.37,0,0,1,6,2.95q2.39,2.94,2.39,9.08a18.73,18.73,0,0,1-1.49,8.14,9.13,9.13,0,0,1-4,4.32,12.46,12.46,0,0,1-8.69.85A6.83,6.83,0,0,1,218,47.45l.61-.47a4.9,4.9,0,0,0,1.7,1.11,5.39,5.39,0,0,0,1.84.35c1.61,0,2.79-1,3.57-2.95s1.15-5,1.15-8.94a35.43,35.43,0,0,0-.45-6.42,7.36,7.36,0,0,0-1.27-3.28,2.5,2.5,0,0,0-2-1A3.8,3.8,0,0,0,220.54,27a4.46,4.46,0,0,0-1.29,3.14l-.1-2A6.88,6.88,0,0,1,222,24.8,8.67,8.67,0,0,1,226.51,23.67Z" transform="translate(-59.52 -11.87)"/><path class="cls-1" d="M250,23.67a14.36,14.36,0,0,1,6.2,1.25A8.86,8.86,0,0,1,260.32,29a16.31,16.31,0,0,1,1.49,7.55,16.31,16.31,0,0,1-1.49,7.55,8.86,8.86,0,0,1-4.15,4.08,15.9,15.9,0,0,1-12.36,0,9,9,0,0,1-4.18-4.08,16,16,0,0,1-1.51-7.55A16,16,0,0,1,239.63,29a9,9,0,0,1,4.18-4.08A14.24,14.24,0,0,1,250,23.67Zm0,.94c-1.11,0-2,.94-2.76,2.81s-1.11,4.91-1.11,9.13.37,7.26,1.11,9.13,1.65,2.81,2.76,2.81,2.06-.94,2.78-2.81,1.09-4.91,1.09-9.13-.37-7.26-1.09-9.13S251.1,24.61,250,24.61Z" transform="translate(-59.52 -11.87)"/><path class="cls-1" d="M270.63,49.1a5.78,5.78,0,0,1-4.6-1.67,6,6,0,0,1-1.44-4,5.57,5.57,0,0,1,.92-3.28A7.15,7.15,0,0,1,267.9,38,19.43,19.43,0,0,1,271,36.67c1.07-.36,2.1-.73,3.07-1.09a9.23,9.23,0,0,0,2.36-1.22,2.14,2.14,0,0,0,.9-1.77V28.67a6,6,0,0,0-.31-2,3,3,0,0,0-1.08-1.51,3.52,3.52,0,0,0-2.15-.59,5.68,5.68,0,0,0-1.65.24,3.8,3.8,0,0,0-1.42.75,4.36,4.36,0,0,1,2.24,1.56,3.89,3.89,0,0,1,.73,2.31,3.41,3.41,0,0,1-1.2,2.76,4.26,4.26,0,0,1-2.85,1,3.41,3.41,0,0,1-2.76-1.14,4,4,0,0,1-1-2.73,3.89,3.89,0,0,1,.71-2.39,6.86,6.86,0,0,1,2.07-1.77A10.81,10.81,0,0,1,272,24a21.48,21.48,0,0,1,4.1-.37,17.34,17.34,0,0,1,4.08.45,6.51,6.51,0,0,1,3.19,1.77,5,5,0,0,1,1.32,2.64,22.74,22.74,0,0,1,.28,4V45.23a4.06,4.06,0,0,0,.22,1.63.7.7,0,0,0,.68.45,1.56,1.56,0,0,0,.85-.24,5.17,5.17,0,0,0,.71-.52l.52.81a7.48,7.48,0,0,1-2.46,1.29,10,10,0,0,1-3.07.45c-1.95,0-3.25-.38-3.91-1.13a4,4,0,0,1-1-2.6,8.07,8.07,0,0,1-2.74,2.74A7.75,7.75,0,0,1,270.63,49.1Zm4.2-3.4a2.8,2.8,0,0,0,1.3-.3,3.63,3.63,0,0,0,1.16-1.06V34.52a5,5,0,0,1-1.37,1.53c-.57.43-1.14.89-1.72,1.37a6.29,6.29,0,0,0-1.47,1.82,6.05,6.05,0,0,0-.59,2.88,4,4,0,0,0,.78,2.76A2.53,2.53,0,0,0,274.83,45.7Z" transform="translate(-59.52 -11.87)"/><path class="cls-1" d="M305.93,23.67a4.31,4.31,0,0,1,2.55.68,4,4,0,0,1,1.37,1.75,5.7,5.7,0,0,1,.42,2.1,4.34,4.34,0,0,1-1.11,3.11,3.78,3.78,0,0,1-2.9,1.18,4.24,4.24,0,0,1-2.88-.87,3,3,0,0,1-1-2.34,4.17,4.17,0,0,1,.64-2.4,6,6,0,0,1,1.58-1.61,2.58,2.58,0,0,0-1.37.19,3.67,3.67,0,0,0-1.84,1.06,6,6,0,0,0-1.25,1.89,5.58,5.58,0,0,0-.45,2.19V43.91c0,1.51.34,2.53,1,3.07a5.23,5.23,0,0,0,3.23.8v1l-3.21-.12c-1.42,0-2.88-.07-4.39-.07-1.35,0-2.71,0-4.08.07l-3,.12v-1a2.85,2.85,0,0,0,2.19-.71,4.17,4.17,0,0,0,.64-2.69V29.47a6.25,6.25,0,0,0-.62-3.14,2.38,2.38,0,0,0-2.21-1v-1c1,.09,2,.14,2.92.14,1.42,0,2.76,0,4-.17a30.63,30.63,0,0,0,3.51-.49v3.87a6.87,6.87,0,0,1,1.49-2.12,6.58,6.58,0,0,1,2.12-1.4A6.83,6.83,0,0,1,305.93,23.67Z" transform="translate(-59.52 -11.87)"/><path class="cls-1" d="M322.07,23.67a9.75,9.75,0,0,1,3.59.59,5.48,5.48,0,0,1,2.5,2l-.57.47a3.61,3.61,0,0,0-1.49-1.18,4.52,4.52,0,0,0-1.81-.38c-1.51,0-2.69.94-3.52,2.81s-1.25,4.74-1.25,8.61a32.15,32.15,0,0,0,.5,6.39,7.09,7.09,0,0,0,1.36,3.28,2.65,2.65,0,0,0,2,1A3.68,3.68,0,0,0,326,46.06a4.09,4.09,0,0,0,1.21-3l.14,2A7.17,7.17,0,0,1,325,48.35a6.31,6.31,0,0,1-3.8,1.08,8.71,8.71,0,0,1-8.37-5.59,18.58,18.58,0,0,1-1.25-7.43,16.38,16.38,0,0,1,1.34-7.1,9.62,9.62,0,0,1,3.73-4.23A10.49,10.49,0,0,1,322.07,23.67Zm12.69-11.8V43.58a6.09,6.09,0,0,0,.64,3.14,2.37,2.37,0,0,0,2.19,1v1c-1-.09-1.95-.14-2.92-.14-1.42,0-2.75.05-4,.14a24.87,24.87,0,0,0-3.54.52V17.53a6.52,6.52,0,0,0-.59-3.14,2.38,2.38,0,0,0-2.24-1v-1c1,.09,2,.14,2.92.14,1.45,0,2.8,0,4.06-.16A30.49,30.49,0,0,0,334.76,11.87Z" transform="translate(-59.52 -11.87)"/><path class="cls-1" d="M271.73,59.35a2.86,2.86,0,0,1,1.13,1.13,3.69,3.69,0,0,1,0,3.34A3.09,3.09,0,0,1,271.73,65a3.23,3.23,0,0,1-1.61.4A3,3,0,0,1,268.7,65a2.71,2.71,0,0,1-1-1V65.3h-.81V56.4h.85v3.79a2.57,2.57,0,0,1,1-.93,3.06,3.06,0,0,1,1.39-.32A3.24,3.24,0,0,1,271.73,59.35Zm-.47,4.95a2.16,2.16,0,0,0,.85-.87,2.66,2.66,0,0,0,.3-1.28,2.73,2.73,0,0,0-.3-1.29,2.29,2.29,0,0,0-.85-.87,2.57,2.57,0,0,0-2.41,0,2.34,2.34,0,0,0-.84.87,2.73,2.73,0,0,0-.3,1.29,2.66,2.66,0,0,0,.3,1.28,2.2,2.2,0,0,0,.84.87,2.5,2.5,0,0,0,2.41,0Z" transform="translate(-59.52 -11.87)"/><path class="cls-1" d="M280.13,59,277,66.06a3,3,0,0,1-.89,1.26,2,2,0,0,1-1.21.37,2.61,2.61,0,0,1-.85-.14,1.92,1.92,0,0,1-.68-.43l.39-.64a1.58,1.58,0,0,0,1.15.48,1.15,1.15,0,0,0,.74-.24,2,2,0,0,0,.57-.82l.28-.61L273.65,59h.89l2.37,5.37L279.29,59Z" transform="translate(-59.52 -11.87)"/><path class="cls-1" d="M287,59a3.36,3.36,0,0,1,1.31-.24v1.73a3.94,3.94,0,0,0-.42,0,1.74,1.74,0,0,0-1.26.45,1.83,1.83,0,0,0-.45,1.35v3h-1.87V58.85h1.78v.85A2.15,2.15,0,0,1,287,59Z" transform="translate(-59.52 -11.87)"/><path class="cls-1" d="M294.31,59.47a2.7,2.7,0,0,1,.81,2.15V65.3h-1.76v-.8a2.07,2.07,0,0,1-2,.9,3,3,0,0,1-1.29-.25,1.89,1.89,0,0,1-.84-.7,1.81,1.81,0,0,1-.29-1,1.67,1.67,0,0,1,.68-1.41,3.4,3.4,0,0,1,2.09-.52h1.49a1.18,1.18,0,0,0-.37-.94,1.65,1.65,0,0,0-1.12-.33,3.18,3.18,0,0,0-1,.16,2.78,2.78,0,0,0-.84.44l-.68-1.31a4,4,0,0,1,1.27-.57,5.52,5.52,0,0,1,1.52-.21A3.32,3.32,0,0,1,294.31,59.47Zm-1.6,4.45a1.21,1.21,0,0,0,.53-.66V62.6H292c-.77,0-1.15.26-1.15.76a.67.67,0,0,0,.28.57,1.28,1.28,0,0,0,.77.21A1.58,1.58,0,0,0,292.71,63.92Z" transform="translate(-59.52 -11.87)"/><path class="cls-1" d="M296.81,56.4h1.87v8.9h-1.87Z" transform="translate(-59.52 -11.87)"/><path class="cls-1" d="M302.47,59h1.66v1.44h-1.61V65.3h-1.87V60.43h-1V59h1V58.7A2.38,2.38,0,0,1,301.3,57a2.52,2.52,0,0,1,1.84-.65,3.44,3.44,0,0,1,.8.09,2,2,0,0,1,.63.26L304.08,58a1.31,1.31,0,0,0-.76-.23c-.56,0-.85.31-.85.94Z" transform="translate(-59.52 -11.87)"/><path class="cls-1" d="M309.85,59.47a2.7,2.7,0,0,1,.81,2.15V65.3H308.9v-.8a2.07,2.07,0,0,1-2,.9,3,3,0,0,1-1.29-.25,1.89,1.89,0,0,1-.84-.7,1.81,1.81,0,0,1-.29-1A1.67,1.67,0,0,1,305.2,62a3.4,3.4,0,0,1,2.09-.52h1.49a1.18,1.18,0,0,0-.37-.94,1.65,1.65,0,0,0-1.12-.33,3.18,3.18,0,0,0-1,.16,2.78,2.78,0,0,0-.84.44l-.68-1.31A4,4,0,0,1,306,59a5.52,5.52,0,0,1,1.52-.21A3.32,3.32,0,0,1,309.85,59.47Zm-1.6,4.45a1.21,1.21,0,0,0,.53-.66V62.6H307.5c-.77,0-1.15.26-1.15.76a.67.67,0,0,0,.28.57,1.28,1.28,0,0,0,.77.21A1.58,1.58,0,0,0,308.25,63.92Z" transform="translate(-59.52 -11.87)"/><path class="cls-1" d="M315,59a3.38,3.38,0,0,1,1.32-.24v1.73l-.42,0a1.7,1.7,0,0,0-1.26.45,1.8,1.8,0,0,0-.46,1.35v3h-1.87V58.85h1.79v.85A2.06,2.06,0,0,1,315,59Z" transform="translate(-59.52 -11.87)"/><path class="cls-1" d="M317.57,57.65a1,1,0,0,1,0-1.49,1.17,1.17,0,0,1,.84-.3,1.24,1.24,0,0,1,.84.29.93.93,0,0,1,.32.72,1,1,0,0,1-.32.77,1.31,1.31,0,0,1-1.68,0Zm-.1,1.2h1.87V65.3h-1.87Z" transform="translate(-59.52 -11.87)"/><path class="cls-1" d="M322.33,65a3.08,3.08,0,0,1-1.27-1.18,3.17,3.17,0,0,1-.46-1.71,3.21,3.21,0,0,1,.46-1.72,3.15,3.15,0,0,1,1.27-1.18,3.76,3.76,0,0,1,1.82-.43,3.8,3.8,0,0,1,1.83.43,3.25,3.25,0,0,1,1.26,1.18,3.29,3.29,0,0,1,.45,1.72,3.26,3.26,0,0,1-.45,1.71A3.18,3.18,0,0,1,326,65a3.8,3.8,0,0,1-1.83.43A3.76,3.76,0,0,1,322.33,65Zm3-1.59a2.08,2.08,0,0,0,0-2.61,1.59,1.59,0,0,0-1.19-.48,1.57,1.57,0,0,0-1.18.48,2,2,0,0,0,0,2.61,1.57,1.57,0,0,0,1.18.48A1.59,1.59,0,0,0,325.34,63.38Z" transform="translate(-59.52 -11.87)"/><path class="cls-1" d="M329.54,65.2a4,4,0,0,1-1.22-.5l.62-1.34a4.25,4.25,0,0,0,1.05.45,4.19,4.19,0,0,0,1.2.17c.79,0,1.19-.19,1.19-.58a.42.42,0,0,0-.33-.4,4.55,4.55,0,0,0-1-.2,10.17,10.17,0,0,1-1.3-.28,2.06,2.06,0,0,1-.9-.55,1.59,1.59,0,0,1-.37-1.13,1.75,1.75,0,0,1,.35-1.09,2.29,2.29,0,0,1,1-.73,4.32,4.32,0,0,1,1.6-.27,6.39,6.39,0,0,1,1.37.15,3.74,3.74,0,0,1,1.12.42l-.63,1.33a3.74,3.74,0,0,0-1.86-.48,1.8,1.8,0,0,0-.9.17.48.48,0,0,0-.3.43.43.43,0,0,0,.33.42,6.35,6.35,0,0,0,1,.23,9.81,9.81,0,0,1,1.3.28,2,2,0,0,1,.87.54,1.57,1.57,0,0,1,.37,1.11,1.73,1.73,0,0,1-.36,1.07,2.29,2.29,0,0,1-1.05.72,4.68,4.68,0,0,1-1.63.26A6.39,6.39,0,0,1,329.54,65.2Z" transform="translate(-59.52 -11.87)"/><path class="cls-1" d="M335.2,65.06a1.11,1.11,0,0,1-.34-.84,1.07,1.07,0,0,1,.34-.83,1.22,1.22,0,0,1,1.65,0,1.07,1.07,0,0,1,.34.83A1.16,1.16,0,0,1,336,65.4,1.09,1.09,0,0,1,335.2,65.06Z" transform="translate(-59.52 -11.87)"/></svg>